<?xml version="1.0" encoding="UTF-8" standalone="no"?>
<!DOCTYPE svg PUBLIC "-//W3C//DTD SVG 1.1//EN" "http://www.w3.org/Graphics/SVG/1.1/DTD/svg11.dtd">
<svg width="100%" height="100%" viewBox="0 0 2592 432" version="1.1" xmlns="http://www.w3.org/2000/svg" xmlns:xlink="http://www.w3.org/1999/xlink" xml:space="preserve" xmlns:serif="http://www.serif.com/" style="fill-rule:evenodd;clip-rule:evenodd;stroke-linejoin:round;stroke-miterlimit:2;">
    <g id="Artboard1" transform="matrix(1,0,0,1,-353.358,-1120.43)">
        <rect x="353.358" y="1120.43" width="2591.95" height="431.024" style="fill:none;"/>
        <clipPath id="_clip1">
            <rect x="353.358" y="1120.43" width="2591.95" height="431.024"/>
        </clipPath>
        <g clip-path="url(#_clip1)">
            <g id="Capa-1" serif:id="Capa 1" transform="matrix(4.16667,0,0,4.16667,0.357917,0.434265)">
                <g transform="matrix(1,0,0,1,280.865,354.846)">
                    <path d="M0,17.07L-1.735,17.07L-1.735,0L8.561,0L8.561,1.591L0,1.591L0,7.402L7.957,7.402L7.957,8.994L0,8.994L0,17.07Z" style="fill:rgb(81,80,80);fill-rule:nonzero;"/>
                </g>
                <g transform="matrix(1,0,0,1,311.361,370.758)">
                    <path d="M0,-14.754C-4.387,-14.754 -7.016,-11.307 -7.016,-7.377C-7.016,-3.447 -4.387,0 0,0C4.389,0 7.016,-3.447 7.016,-7.377C7.016,-11.307 4.389,-14.754 0,-14.754M0,1.592C-5.086,1.592 -8.896,-2.193 -8.896,-7.377C-8.896,-12.561 -5.086,-16.346 0,-16.346C5.088,-16.346 8.896,-12.561 8.896,-7.377C8.896,-2.193 5.088,1.592 0,1.592" style="fill:rgb(81,80,80);fill-rule:nonzero;"/>
                </g>
                <g transform="matrix(1,0,0,1,340.289,354.846)">
                    <path d="M0,17.07L-1.736,17.07L-1.736,1.591L-7.449,1.591L-7.449,0L5.713,0L5.713,1.591L0,1.591L0,17.07Z" style="fill:rgb(81,80,80);fill-rule:nonzero;"/>
                </g>
                <g transform="matrix(1,0,0,1,367.48,370.758)">
                    <path d="M0,-14.754C-4.389,-14.754 -7.016,-11.307 -7.016,-7.377C-7.016,-3.447 -4.389,0 0,0C4.387,0 7.016,-3.447 7.016,-7.377C7.016,-11.307 4.387,-14.754 0,-14.754M0,1.592C-5.088,1.592 -8.896,-2.193 -8.896,-7.377C-8.896,-12.561 -5.088,-16.346 0,-16.346C5.086,-16.346 8.895,-12.561 8.895,-7.377C8.895,-2.193 5.086,1.592 0,1.592" style="fill:rgb(81,80,80);fill-rule:nonzero;"/>
                </g>
                <g transform="matrix(1,0,0,1,403.543,368.781)">
                    <path d="M0,-10.801C-1.156,-12.03 -2.773,-12.778 -4.869,-12.778C-9.258,-12.778 -11.885,-9.33 -11.885,-5.401C-11.885,-1.471 -9.258,1.976 -4.869,1.976C-3.11,1.976 -1.423,1.494 -0.145,0.771L-0.145,-4.942L-4.219,-4.942L-4.219,-6.533L1.592,-6.533L1.592,1.832C-0.312,2.965 -2.798,3.568 -4.869,3.568C-9.958,3.568 -13.766,-0.217 -13.766,-5.401C-13.766,-10.584 -9.958,-14.369 -4.869,-14.369C-2.17,-14.369 -0.217,-13.598 1.302,-12.078L0,-10.801Z" style="fill:rgb(81,80,80);fill-rule:nonzero;"/>
                </g>
                <g transform="matrix(1,0,0,1,422.514,364.369)">
                    <path d="M0,-1.976L3.085,-1.976C6.194,-1.976 7.256,-3.326 7.256,-4.966C7.256,-6.605 6.194,-7.931 3.085,-7.931L0,-7.931L0,-1.976ZM0,7.547L-1.736,7.547L-1.736,-9.523L3.519,-9.523C6.992,-9.523 9.136,-8.027 9.136,-4.966C9.136,-2.603 7.569,-0.794 4.772,-0.554L9.69,7.547L7.569,7.547L2.893,-0.384L0,-0.384L0,7.547Z" style="fill:rgb(81,80,80);fill-rule:nonzero;"/>
                </g>
                <g transform="matrix(1,0,0,1,448.403,360.922)">
                    <path d="M0,4.918L7.4,4.918L3.713,-4.051L0,4.918ZM-2.53,10.994L-4.556,10.994L2.87,-6.076L4.558,-6.076L11.983,10.994L9.958,10.994L8.077,6.51L-0.651,6.51L-2.53,10.994Z" style="fill:rgb(81,80,80);fill-rule:nonzero;"/>
                </g>
                <g transform="matrix(1,0,0,1,475.52,354.846)">
                    <path d="M0,17.07L-1.734,17.07L-1.734,0L8.562,0L8.562,1.591L0,1.591L0,7.402L7.958,7.402L7.958,8.994L0,8.994L0,17.07Z" style="fill:rgb(81,80,80);fill-rule:nonzero;"/>
                </g>
                <g transform="matrix(1,0,0,1,0,110.543)">
                    <path d="M500.014,261.373L498.279,261.373L498.279,244.303L500.014,244.303L500.014,261.373ZM499.098,243.557L497.675,243.557L500.087,240.084L502.281,240.084L499.098,243.557Z" style="fill:rgb(81,80,80);fill-rule:nonzero;"/>
                </g>
                <g transform="matrix(1,0,0,1,517.973,360.922)">
                    <path d="M0,4.918L7.401,4.918L3.713,-4.051L0,4.918ZM-2.532,10.994L-4.557,10.994L2.868,-6.076L4.556,-6.076L11.981,10.994L9.956,10.994L8.076,6.51L-0.65,6.51L-2.532,10.994Z" style="fill:rgb(81,80,80);fill-rule:nonzero;"/>
                </g>
                <g transform="matrix(1,0,0,1,583.903,357.45)">
                    <path d="M0,11.863L0.047,11.863L5.642,-2.604L7.521,-2.604L0.867,14.467L-0.868,14.467L-7.354,-2.604L-5.425,-2.604L0,11.863Z" style="fill:rgb(81,80,80);fill-rule:nonzero;"/>
                </g>
                <g transform="matrix(-1,0,0,1,1211.24,114.762)">
                    <rect x="604.753" y="240.084" width="1.737" height="17.07" style="fill:rgb(81,80,80);"/>
                </g>
                <g transform="matrix(1,0,0,1,623.703,356.437)">
                    <path d="M0,13.887L3.375,13.887C8.582,13.887 11.017,10.463 11.017,6.944C11.017,3.424 8.582,0 3.375,0L0,0L0,13.887ZM-1.737,-1.592L3.93,-1.592C8.195,-1.592 12.896,1.254 12.896,6.944C12.896,12.633 8.195,15.479 3.93,15.479L-1.737,15.479L-1.737,-1.592Z" style="fill:rgb(81,80,80);fill-rule:nonzero;"/>
                </g>
                <g transform="matrix(1,0,0,1,652.894,356.437)">
                    <path d="M0,13.887L9.137,13.887L9.137,15.479L-1.737,15.479L-1.737,-1.592L8.847,-1.592L8.847,0L0,0L0,5.811L8.27,5.811L8.27,7.403L0,7.403L0,13.887Z" style="fill:rgb(81,80,80);fill-rule:nonzero;"/>
                </g>
                <g transform="matrix(1,0,0,1,684.281,370.758)">
                    <path d="M0,-14.754C-4.389,-14.754 -7.016,-11.307 -7.016,-7.377C-7.016,-3.447 -4.389,0 0,0C4.386,0 7.015,-3.447 7.015,-7.377C7.015,-11.307 4.386,-14.754 0,-14.754M0,1.592C-5.088,1.592 -8.896,-2.193 -8.896,-7.377C-8.896,-12.561 -5.088,-16.346 0,-16.346C5.085,-16.346 8.894,-12.561 8.894,-7.377C8.894,-2.193 5.085,1.592 0,1.592" style="fill:rgb(81,80,80);fill-rule:nonzero;"/>
                </g>
                <g transform="matrix(1,0,0,1,302.748,319.34)">
                    <path d="M0,-0.989C-9.619,-1.2 -20.557,0.515 -20.557,9.94C-20.557,15.657 -16.732,18.377 -12.225,18.377C-5.904,18.377 -1.896,14.356 -0.49,10.243C-0.197,9.336 0,8.344 0,7.431L0,-0.989ZM8.541,12.158C8.541,16.356 8.746,20.467 9.34,23.791L1.309,23.791L0.625,17.678L0.32,17.678C-2.4,21.492 -7.604,24.891 -14.543,24.891C-24.361,24.891 -29.384,17.969 -29.384,10.94C-29.384,-0.798 -18.959,-7.213 -0.197,-7.117L-0.197,-8.12C-0.197,-12.129 -1.289,-19.349 -11.223,-19.349C-15.73,-19.349 -20.453,-17.945 -23.856,-15.742L-25.879,-21.551C-21.857,-24.162 -16.041,-25.88 -9.914,-25.88C4.922,-25.88 8.541,-15.742 8.541,-6.007L8.541,12.158Z" style="fill:rgb(176,148,54);fill-rule:nonzero;"/>
                </g>
                <g transform="matrix(1,0,0,1,323.023,326.868)">
                    <path d="M0,-17.145C0,-22.861 -0.109,-27.777 -0.408,-32.3L7.309,-32.3L7.623,-22.766L8.031,-22.766C10.24,-29.287 15.551,-33.408 21.463,-33.408C22.459,-33.408 23.168,-33.292 23.965,-33.101L23.965,-24.767C23.066,-24.975 22.172,-25.07 20.971,-25.07C14.746,-25.07 10.336,-20.359 9.123,-13.736C8.938,-12.536 8.715,-11.124 8.715,-9.618L8.715,16.263L0,16.263L0,-17.145Z" style="fill:rgb(176,148,54);fill-rule:nonzero;"/>
                </g>
                <g transform="matrix(1,0,0,1,369.9,344.231)">
                    <path d="M0,-61.285L0,-49.663L12.635,-49.663L12.635,-42.938L0,-42.938L0,-16.764C0,-10.731 1.691,-7.328 6.619,-7.328C9.027,-7.328 10.418,-7.516 11.734,-7.926L12.137,-1.295C10.418,-0.61 7.719,0 4.297,0C0.197,0 -3.121,-1.399 -5.223,-3.809C-7.736,-6.418 -8.631,-10.731 -8.631,-16.452L-8.631,-42.938L-16.145,-42.938L-16.145,-49.663L-8.631,-49.663L-8.631,-58.578L0,-61.285Z" style="fill:rgb(176,148,54);fill-rule:nonzero;"/>
                </g>
                <g transform="matrix(1,0,0,1,420.148,323.553)">
                    <path d="M0,-9.415C0.107,-15.042 -2.3,-23.757 -12.23,-23.757C-21.157,-23.757 -25.077,-15.521 -25.766,-9.415L0,-9.415ZM-25.881,-3.092C-25.67,8.838 -18.047,13.756 -9.22,13.756C-2.912,13.756 0.905,12.66 4.213,11.242L5.721,17.57C2.611,18.981 -2.701,20.678 -10.418,20.678C-25.389,20.678 -34.307,10.738 -34.307,-3.896C-34.307,-18.541 -25.67,-30.093 -11.529,-30.093C4.321,-30.093 8.549,-16.131 8.549,-7.216C8.549,-5.413 8.335,-4.001 8.234,-3.092L-25.881,-3.092Z" style="fill:rgb(176,148,54);fill-rule:nonzero;"/>
                </g>
                <g transform="matrix(1,0,0,1,458.171,345.06)">
                    <path d="M0,-50.566L2.368,-28.427C2.886,-22.229 3.403,-18.41 3.716,-14.681L4.022,-14.681C5.361,-18.306 6.92,-22.138 9.71,-28.321L19.849,-50.566L36.49,-50.566L8.35,0L-6.838,0L-15.302,-50.566L0,-50.566Z" style="fill:rgb(91,91,95);fill-rule:nonzero;"/>
                </g>
                <g transform="matrix(1,0,0,1,511.195,328.312)">
                    <path d="M0,-40.422C-4.348,-40.422 -7.572,-43.528 -7.572,-48.185C-7.572,-53.564 -3.313,-57.17 1.538,-57.17C6.204,-57.17 9.512,-54.173 9.512,-49.421C9.512,-43.726 5.158,-40.422 0.096,-40.422L0,-40.422ZM-18.821,16.748L-9.205,-33.818L5.586,-33.818L-3.932,16.748L-18.821,16.748Z" style="fill:rgb(91,91,95);fill-rule:nonzero;"/>
                </g>
                <g transform="matrix(1,0,0,1,521.633,307.828)">
                    <path d="M0,23.992C2.892,25.441 8.369,27.498 13.229,27.498C17.37,27.498 19.521,25.441 19.521,22.965C19.521,20.475 17.875,18.709 13.229,16.45C7.432,13.549 2.586,9.322 2.586,3.009C2.586,-7.544 11.785,-14.471 24.795,-14.471C30.699,-14.471 35.354,-13.226 37.729,-11.872L34.216,-1.339C32.149,-2.268 28.523,-3.503 24.094,-3.503C20.153,-3.503 17.567,-1.846 17.567,0.933C17.567,3.009 19.63,4.754 23.671,6.628C29.252,9.422 35.035,13.549 35.035,20.584C35.035,32.154 25.223,38.463 11.785,38.355C5.479,38.252 -0.612,36.594 -3.627,34.433L0,23.992Z" style="fill:rgb(91,91,95);fill-rule:nonzero;"/>
                </g>
                <g transform="matrix(1,0,0,1,617.652,346.183)">
                    <path d="M0,-51.689L-6.395,-17.57C-7.635,-11.158 -8.478,-5.669 -9.174,-1.123L-22.312,-1.123L-21.399,-9.3L-21.603,-9.402C-26.76,-2.793 -32.856,0 -38.967,0C-47.125,0 -51.978,-4.541 -51.978,-14.146C-51.978,-16.839 -51.684,-19.941 -50.955,-23.46L-45.58,-51.689L-30.705,-51.689L-35.863,-24.596C-36.266,-22.33 -36.578,-19.722 -36.578,-17.879C-36.578,-14.685 -35.258,-12.089 -31.516,-12.089C-26.462,-12.089 -21.194,-18.187 -19.316,-28.224L-14.882,-51.689L0,-51.689Z" style="fill:rgb(91,91,95);fill-rule:nonzero;"/>
                </g>
                <g transform="matrix(1,0,0,1,658.075,334.508)">
                    <path d="M0,-29.474C-1.136,-29.669 -2.375,-29.872 -3.919,-29.872C-13.539,-29.872 -20.588,-18.092 -20.588,-8.682C-20.588,-3.715 -18.609,-0.316 -14.464,-0.316C-10.015,-0.316 -4.334,-5.381 -2.063,-17.768L0,-29.474ZM-4.021,10.553C-3.919,7.645 -3.632,4.129 -3.415,0.518L-3.632,0.518C-8.382,8.883 -14.875,11.676 -20.779,11.676C-29.876,11.676 -36.063,4.641 -36.063,-5.894C-36.063,-22.937 -24.713,-41.15 0.091,-41.15C6.211,-41.15 12.603,-40.014 16.745,-38.66L11.685,-12.199C10.424,-5.693 9.404,4.236 9.614,10.553L-4.021,10.553Z" style="fill:rgb(91,91,95);fill-rule:nonzero;"/>
                </g>
                <g transform="matrix(0.188159,-0.982139,-0.982139,-0.188159,725.709,329.481)">
                    <path d="M-24.295,44.014L50.445,44.014L53.246,29.391L-21.492,29.38L-24.295,44.014Z" style="fill:rgb(91,91,95);fill-rule:nonzero;"/>
                </g>
                <g transform="matrix(1,0,0,1,210.107,292.005)">
                    <path d="M0,7.476C5.824,7.476 10.602,13.447 10.602,20.727C10.602,28.062 5.824,34 0,34C-5.866,34 -10.612,28.062 -10.612,20.727C-10.612,13.447 -5.866,7.476 0,7.476M-38.931,26.147C-38.931,46.259 -23.833,62.558 -5.206,62.558C13.397,62.558 28.502,46.259 28.502,26.147C28.502,14.883 23.75,4.806 16.293,-1.867C28.536,1.472 40.947,7.309 53.214,16.351L48.788,-8.026C-51.24,-55.082 -125.301,47.643 -125.301,47.643C-125.301,47.643 -79.642,0.941 -22.713,-4.926C-32.402,1.472 -38.931,12.975 -38.931,26.147" style="fill:rgb(91,91,95);fill-rule:nonzero;"/>
                </g>
                <g transform="matrix(1,0,0,1,202.358,317.111)">
                    <path d="M0,45.079C-28.753,47.849 -54.278,26.752 -57.015,-1.998C-57.366,-5.488 -57.325,-8.952 -56.998,-12.329C-58.873,-6.065 -59.592,0.646 -58.939,7.566C-56.187,36.312 -30.655,57.408 -1.917,54.653C23.339,52.258 42.67,32.272 45.146,7.965C39.238,27.786 21.832,43.028 0,45.079" style="fill:rgb(91,91,95);fill-rule:nonzero;"/>
                </g>
                <g transform="matrix(0,-1,-1,0,553.334,357.906)">
                    <path d="M-6.516,-6.531C-10.127,-6.531 -13.051,-3.615 -13.051,-0.002C-13.051,3.606 -10.127,6.516 -6.516,6.516C-2.914,6.516 0.004,3.606 0.004,-0.002C0.004,-3.615 -2.914,-6.531 -6.516,-6.531" style="fill:rgb(81,80,80);fill-rule:nonzero;"/>
                </g>
                <g transform="matrix(0,-1,-1,0,211.005,292.402)">
                    <path d="M-26.272,-26.264C-42.931,-26.264 -56.428,-14.5 -56.428,0.011C-56.428,14.523 -42.931,26.272 -26.272,26.272C-9.611,26.272 3.892,14.523 3.892,0.011C3.892,-14.5 -9.611,-26.264 -26.272,-26.264" style="fill:rgb(47,48,48);"/>
                </g>
                <g transform="matrix(0,-1,-1,0,220.773,300.28)">
                    <path d="M-8.19,-8.179C-13.821,-8.179 -18.394,-4.514 -18.394,0.006C-18.394,4.509 -13.821,8.19 -8.19,8.19C-2.542,8.19 2.024,4.509 2.024,0.006C2.024,-4.514 -2.542,-8.179 -8.19,-8.179" style="fill:white;"/>
                </g>
            </g>
        </g>
    </g>
</svg>
